HIERARCHY
ROOT Hips
{
	OFFSET 103.898903 91.744438 377.834412
	CHANNELS 6 Xposition Yposition Zposition Zrotation Yrotation Xrotation 
	JOINT LeftUpLeg
	{
		OFFSET 0.103458 1.857842 10.548504
		CHANNELS 3 Zrotation Yrotation Xrotation
		JOINT LeftLeg
		{
			OFFSET 43.500000 -0.000038 0.000000
			CHANNELS 3 Zrotation Yrotation Xrotation
			JOINT LeftFoot
			{
				OFFSET 42.372200 0.000008 0.000004
				CHANNELS 3 Zrotation Yrotation Xrotation
				JOINT LeftToe
				{
					OFFSET 17.299992 -0.000003 -0.000013
					CHANNELS 3 Zrotation Yrotation Xrotation
					End Site
					{
						OFFSET 0.000000 0.000000 0.000000
					}
				}
			}
		}
	}
	JOINT RightUpLeg
	{
		OFFSET 0.103456 1.857816 -10.548503
		CHANNELS 3 Zrotation Yrotation Xrotation
		JOINT RightLeg
		{
			OFFSET 43.500042 -0.000023 0.000008
			CHANNELS 3 Zrotation Yrotation Xrotation
			JOINT RightFoot
			{
				OFFSET 42.372265 -0.000008 0.000010
				CHANNELS 3 Zrotation Yrotation Xrotation
				JOINT RightToe
				{
					OFFSET 17.300022 0.000005 0.000000
					CHANNELS 3 Zrotation Yrotation Xrotation
					End Site
					{
						OFFSET 0.000000 0.000000 0.000000
					}
				}
			}
		}
	}
	JOINT Spine
	{
		OFFSET 6.901966 -2.603735 -0.000002
		CHANNELS 3 Zrotation Yrotation Xrotation
		JOINT Spine1
		{
			OFFSET 12.588103 0.000016 0.000000
			CHANNELS 3 Zrotation Yrotation Xrotation
			JOINT Spine2
			{
				OFFSET 12.343200 0.000002 -0.000002
				CHANNELS 3 Zrotation Yrotation Xrotation
				JOINT Neck
				{
					OFFSET 25.832891 -0.000029 0.000006
					CHANNELS 3 Zrotation Yrotation Xrotation
					JOINT Head
					{
						OFFSET 11.766613 0.000029 -0.000002
						CHANNELS 3 Zrotation Yrotation Xrotation
						End Site
						{
							OFFSET 0.000000 0.000000 0.000000
						}
					}
				}
				JOINT LeftShoulder
				{
					OFFSET 19.745903 -1.480385 6.000109
					CHANNELS 3 Zrotation Yrotation Xrotation
					JOINT LeftArm
					{
						OFFSET 11.284124 -0.000024 -0.000022
						CHANNELS 3 Zrotation Yrotation Xrotation
						JOINT LeftForeArm
						{
							OFFSET 33.000057 0.000000 0.000033
							CHANNELS 3 Zrotation Yrotation Xrotation
							JOINT LeftHand
							{
								OFFSET 25.199997 0.000045 -0.000004
								CHANNELS 3 Zrotation Yrotation Xrotation
								End Site
								{
									OFFSET 0.000000 0.000000 0.000000
								}
							}
						}
					}
				}
				JOINT RightShoulder
				{
					OFFSET 19.746105 -1.480396 -6.000069
					CHANNELS 3 Zrotation Yrotation Xrotation
					JOINT RightArm
					{
						OFFSET 11.284142 -0.000028 -0.000010
						CHANNELS 3 Zrotation Yrotation Xrotation
						JOINT RightForeArm
						{
							OFFSET 33.000084 0.000033 0.000011
							CHANNELS 3 Zrotation Yrotation Xrotation
							JOINT RightHand
							{
								OFFSET 25.199783 0.000119 0.000426
								CHANNELS 3 Zrotation Yrotation Xrotation
								End Site
								{
									OFFSET 0.000000 0.000000 0.000000
								}
							}
						}
					}
				}
			}
		}
	}
}
MOTION
Frames: 14
Frame Time: 0.033333
210.957993 88.546410 -314.537994 93.052093 6.274932 79.647102 -166.228937 2.080706 171.071910 -37.921729 -3.195002 5.003931 78.821011 -5.954841 -9.833352 21.454553 0.003094 0.000001 159.482964 -3.945592 -172.871296 -22.958093 0.898040 4.977706 73.138888 -5.971208 -7.823539 21.454558 -0.003100 -0.000017 8.047405 -0.802306 -0.917190 6.095277 -1.555434 -1.875347 5.777221 -1.566602 -1.865910 18.785107 -0.566288 -15.700575 -19.818962 11.129862 -21.055759 -161.903801 -79.855143 -19.918804 -23.777953 59.998287 27.558152 -31.911662 -16.912827 1.390847 -0.171839 -18.824826 0.467717 177.914407 73.822051 -0.744301 3.066666 -56.758237 -51.201144 -34.626949 19.131329 -1.619894 3.510250 14.671036 -6.061751 
210.173294 89.123444 -311.622192 92.346295 6.318599 78.461484 -170.069894 -0.485402 169.504969 -46.751986 -2.085702 7.216585 72.713361 -9.702478 -14.437203 21.454545 0.003082 0.000005 161.835131 -4.818094 -171.942663 -22.657392 0.866058 3.861182 74.392119 -5.430675 -8.985374 21.454558 -0.003119 -0.000020 8.062559 -0.615132 -0.851828 6.121586 -1.184587 -1.734950 5.803578 -1.194898 -1.727762 18.777725 -0.458334 -15.947513 -19.529519 11.190228 -21.302754 -163.674897 -80.154374 -18.116617 -22.495153 61.253970 28.864472 -29.491121 -16.177052 1.295315 1.566761 -18.132160 -1.394807 177.570111 74.058423 -1.091962 2.208385 -56.696806 -50.894871 -34.321072 19.105432 -1.611141 3.498280 12.865391 -7.272913 
209.367493 89.737869 -308.906006 91.755423 6.493522 77.338997 -174.081796 -2.899311 169.797943 -54.679817 -1.558623 8.335532 67.428488 -13.144822 -19.146144 21.454558 0.003092 -0.000002 164.514846 -5.590985 -172.151913 -21.664592 1.114574 3.336444 75.152469 -5.239052 -9.814644 21.454560 -0.003098 -0.000017 8.156015 -0.495471 -0.832408 6.306384 -0.945051 -1.690516 5.988387 -0.955113 -1.684775 18.355140 0.009246 -16.149269 -19.211891 10.858712 -21.339973 -165.343102 -80.456097 -16.420490 -21.389963 61.823102 30.467479 -27.809950 -15.438359 1.217103 2.893954 -16.475386 -3.733340 177.327803 74.100340 -1.339365 1.149715 -56.559864 -49.646142 -34.982118 19.187818 -1.631845 2.973929 11.673364 -9.239772 
208.597198 90.183922 -306.373993 91.030084 6.729379 75.585503 -177.732915 -4.979097 171.524792 -60.969786 -2.486310 9.059704 67.373020 -13.832702 -19.551331 21.454560 0.003091 0.000005 167.058135 -6.593597 -173.755887 -20.830906 1.530652 3.246758 75.723220 -5.264939 -10.303445 21.454560 -0.003108 -0.000016 8.258459 -0.386333 -0.709850 6.508781 -0.732342 -1.440263 6.190766 -0.740893 -1.435811 18.661243 0.136679 -16.226721 -19.443902 11.016616 -21.522877 -167.024217 -80.383048 -14.713884 -20.067111 61.602419 32.427187 -26.920619 -14.545883 1.144572 3.453740 -14.385680 -4.182280 176.597710 74.114424 -2.087156 0.433380 -56.392091 -49.148013 -36.074836 19.794288 -1.697181 2.819577 11.262357 -9.703970 
207.863098 90.530327 -303.962494 90.459770 6.931473 73.322900 178.740559 -6.235497 172.593293 -65.290871 -2.563394 9.155093 71.645693 -11.933531 -16.326843 21.454551 0.003088 0.000001 169.264710 -7.433396 -175.381499 -20.471315 1.702860 2.882678 76.366043 -5.032385 -10.606978 21.454558 -0.003108 -0.000018 8.351158 -0.324387 -0.558168 6.692621 -0.616092 -1.134105 6.374551 -0.622802 -1.130365 19.163060 0.101628 -16.096948 -20.038552 11.279062 -21.581142 -166.085229 -80.018514 -15.668828 -19.134645 61.220577 34.207220 -26.463874 -14.176505 1.113241 3.310312 -12.297566 -1.892293 176.078192 74.231234 -2.616550 -0.335581 -56.266631 -48.665149 -37.624456 20.534293 -1.783849 2.724798 11.306658 -9.860154 
207.162598 90.841087 -301.633514 89.963461 7.061104 70.778593 175.351214 -6.990293 173.634733 -67.138676 -2.173824 7.270630 73.759042 -9.381132 -13.664337 21.454553 0.003080 0.000008 171.311827 -8.014595 -176.073015 -20.282675 1.598991 1.784189 77.040907 -4.236560 -10.738598 21.454560 -0.003119 -0.000020 8.434365 -0.302048 -0.409638 6.858114 -0.579390 -0.836394 6.540007 -0.584318 -0.832881 19.305926 0.357657 -15.760066 -20.292801 11.077127 -21.188111 -164.811317 -79.937331 -16.963601 -18.241103 61.046209 36.177647 -26.281888 -14.267939 1.116066 3.180687 -10.864091 -0.141037 175.722517 74.249204 -2.980509 -1.102464 -56.196303 -47.334888 -39.526913 20.985505 -1.863212 2.391426 11.917253 -11.049375 
206.462799 91.098442 -299.383606 89.453034 7.142848 68.024682 172.452031 -7.353296 175.480879 -66.508434 -2.403396 4.416069 76.273009 -5.839571 -9.738381 21.454557 0.003095 0.000002 173.238978 -8.436002 -176.784366 -20.223919 1.561335 0.559725 77.627122 -3.367082 -10.872527 21.454560 -0.003117 -0.000018 8.511743 -0.295140 -0.293808 7.012224 -0.572035 -0.604909 6.694134 -0.575538 -0.601436 19.254054 0.856103 -15.157686 -20.588378 10.408055 -20.330495 -163.538812 -80.065615 -18.255591 -17.112885 61.047800 37.704130 -26.464418 -14.224362 1.116312 3.278223 -10.276521 0.176145 175.355900 74.234198 -3.356415 -1.754105 -56.398422 -45.755318 -40.979991 21.382093 -1.929082 1.332588 12.792362 -12.426689 
205.776794 91.236923 -297.229706 88.880234 7.207378 65.175202 170.135600 -7.340304 176.896900 -63.682041 -1.493404 1.594255 79.540606 -3.027766 -7.690282 21.454555 0.003086 0.000001 175.006754 -8.767504 -177.810875 -20.434833 1.629156 -0.526329 78.342584 -2.601057 -11.074126 21.454558 -0.003109 -0.000015 8.588319 -0.275933 -0.225682 7.164963 -0.537447 -0.467983 6.846864 -0.540123 -0.464714 19.304901 1.193032 -14.388743 -20.910457 9.675933 -19.269910 -162.897252 -80.173484 -18.906312 -15.553889 60.988924 39.110705 -27.048854 -14.119779 1.119495 3.426145 -10.269380 -0.263269 174.776099 74.301106 -3.948536 -2.306567 -56.752605 -44.743575 -42.253107 22.012872 -2.006856 0.784564 13.198621 -12.888030 
205.084106 91.251022 -295.150604 88.197645 7.108003 62.197690 168.163014 -6.908294 178.990776 -59.132609 -0.582504 -0.574575 81.748178 -0.762689 -5.095148 21.454557 0.003102 -0.000002 176.524272 -9.199488 -179.502576 -20.924882 1.800534 -1.300191 79.183332 -2.040710 -11.282361 21.454555 -0.003108 -0.000017 8.654989 -0.234606 -0.176196 7.297915 -0.457703 -0.366810 6.979816 -0.459771 -0.364033 19.163359 1.624710 -13.378513 -21.126026 8.756252 -17.852991 -162.468357 -80.283007 -19.340874 -13.965901 60.878658 40.316732 -27.833852 -14.153660 1.135322 3.281698 -10.226750 -0.531710 174.165808 74.295267 -4.573680 -2.364329 -56.945644 -43.957339 -44.020952 22.411167 -2.085474 0.564322 13.701508 -13.314216 
204.360703 91.190536 -293.109406 87.480612 6.836257 59.105008 166.583956 -6.435702 -177.856268 -53.425098 -0.637604 -1.477106 83.358880 0.471947 -2.630046 21.454555 0.003083 -0.000002 177.877524 -9.713602 178.607835 -21.571040 1.854785 -1.989384 80.100709 -1.529119 -11.491224 21.454560 -0.003115 -0.000019 8.691157 -0.179063 -0.141209 7.369924 -0.348861 -0.293507 7.051821 -0.350478 -0.291407 19.006337 2.153035 -12.200789 -21.378185 7.657900 -16.182130 -162.451200 -80.361342 -19.357458 -12.671685 60.717759 41.633039 -28.350869 -14.339951 1.156509 3.385475 -10.156559 -1.381280 172.913479 74.234403 -5.857879 -1.961351 -57.027951 -43.608094 -45.527896 22.507487 -2.138064 0.002682 14.753340 -13.992513 
203.586807 91.060310 -291.112793 86.751872 6.425299 56.018893 165.447836 -5.936199 -175.272080 -46.813041 0.051909 -0.584843 84.513837 -0.125673 -2.596216 21.454553 0.003090 -0.000001 179.100852 -10.158598 177.663875 -22.400063 1.649652 -3.196990 81.099959 -0.684465 -11.835178 21.454562 -0.003108 -0.000016 8.711607 -0.108918 -0.133598 7.410625 -0.209136 -0.273876 7.092532 -0.210646 -0.272606 18.807119 2.670738 -10.909309 -21.557703 6.528369 -14.359443 -162.243098 -80.432936 -19.568111 -11.957021 60.535386 42.979799 -28.434890 -14.445889 1.164822 3.485229 -10.798550 -1.942963 172.691102 74.238173 -6.085520 -1.989862 -57.100480 -43.494279 -46.546114 22.497226 -2.169366 -0.477086 15.587730 -14.752409 
202.684402 90.946136 -289.132202 85.979507 5.983037 52.889321 164.586686 -5.665198 -172.953996 -39.959206 0.186822 0.970881 83.783601 -1.543504 -4.111919 21.454553 0.003097 0.000001 -179.375493 -10.553596 176.011461 -22.767674 1.669245 -4.103148 81.860384 -0.053054 -12.081677 21.454558 -0.003100 -0.000018 8.742742 -0.023528 -0.123753 7.472701 -0.039073 -0.248747 7.154600 -0.040435 -0.248513 18.563419 3.119693 -9.599715 -21.488783 5.390746 -12.486418 -162.596273 -80.566118 -19.208188 -11.391079 60.337611 43.491551 -28.580947 -14.356829 1.161559 3.313567 -11.350770 -1.064697 171.794981 74.369026 -6.998948 -1.775188 -57.285456 -43.699564 -47.122749 22.484134 -2.186899 -1.026181 16.534221 -15.335390 
201.635895 90.900879 -287.221985 85.228938 5.594105 49.663788 163.867235 -5.591200 -170.558867 -33.233563 -0.804060 2.657933 79.831702 -2.989603 -4.606508 21.454553 0.003095 0.000001 -177.508653 -10.787994 173.750122 -22.581085 1.861138 -4.788413 82.279614 0.414500 -12.216330 21.454560 -0.003104 -0.000017 8.799366 0.042650 -0.086020 7.585812 0.090780 -0.169061 7.267717 0.089891 -0.169601 18.291146 3.554961 -8.310924 -21.342410 4.283662 -10.641011 -162.676446 -80.747173 -19.125071 -11.291952 60.193467 43.025950 -28.705171 -14.256572 1.157609 3.131186 -11.145240 -0.458225 170.841500 74.534528 -7.969484 -1.623293 -57.490973 -44.002940 -47.321716 22.409876 -2.188291 -1.234559 17.366482 -15.272528 
200.506699 90.811028 -285.434509 84.495949 5.037835 46.323490 163.508377 -5.360393 -169.528874 -26.972670 -1.143311 4.107835 75.512666 -4.633423 -6.076309 21.454553 0.003089 -0.000000 -175.821022 -11.000704 171.486010 -22.481284 2.038920 -5.579030 82.659018 0.954258 -12.331362 21.454557 -0.003108 -0.000018 8.842168 0.113777 0.001112 7.671511 0.227186 0.009744 7.353423 0.227376 0.008378 18.010230 3.989576 -7.057196 -21.208909 3.285079 -8.878050 -162.075690 -80.938281 -19.732618 -11.541199 60.064322 42.318933 -28.903544 -14.286520 1.163182 3.281562 -10.876158 -0.207149 169.931487 74.716846 -8.894263 -1.555869 -57.591684 -44.469955 -47.192652 22.111696 -2.164132 -0.708672 18.693137 -14.621442 
